<?xml version="1.0" encoding="UTF-8" standalone="no"?>
<svg
   width="54"
   height="54"
   viewBox="0 0 54 54"
   fill="none"
   version="1.1"
   id="svg91"
   sodipodi:docname="logo_primary.svg"
   inkscape:version="1.1 (c4e8f9ed74, 2021-05-24)"
   xmlns:inkscape="http://www.inkscape.org/namespaces/inkscape"
   xmlns:sodipodi="http://sodipodi.sourceforge.net/DTD/sodipodi-0.dtd"
   xmlns="http://www.w3.org/2000/svg"
   xmlns:svg="http://www.w3.org/2000/svg">
  <sodipodi:namedview
     id="namedview93"
     pagecolor="#ffffff"
     bordercolor="#999999"
     borderopacity="1"
     inkscape:pageshadow="0"
     inkscape:pageopacity="0"
     inkscape:pagecheckerboard="0"
     showgrid="false"
     inkscape:zoom="11.419355"
     inkscape:cx="26.971751"
     inkscape:cy="31"
     inkscape:window-width="1920"
     inkscape:window-height="1044"
     inkscape:window-x="1920"
     inkscape:window-y="0"
     inkscape:window-maximized="1"
     inkscape:current-layer="g22" />
  <g
     filter="url(#filter0_d)"
     id="g22">
    <path
       d="m 11.5118,16.4333 c -0.0029,-0.3943 0.3145,-0.7163 0.7089,-0.7192 l 36.56,-0.2663 c 0.3944,-0.0028 0.7164,0.3145 0.7193,0.7089 0.0029,0.3944 -0.3145,0.7164 -0.7089,0.7193 l -36.56,0.2662 c -0.3944,0.0029 -0.7164,-0.3145 -0.7193,-0.7089 z"
       fill="url(#paint0_linear)"
       id="path2" />
    <path
       d="m 47.3856,14.4972 c -0.0026,-0.1577 0.1232,-0.2877 0.2809,-0.2903 0.1577,-0.0026 0.2877,0.1232 0.2903,0.2809 l 0.0611,3.7127 c 0.0026,0.1578 -0.1232,0.2877 -0.2809,0.2903 -0.1578,0.0026 -0.2877,-0.1231 -0.2903,-0.2809 z"
       fill="url(#paint1_linear)"
       id="path4" />
    <path
       d="m 23.0444,19.3295 c -0.0029,-0.3944 0.3145,-0.7164 0.7088,-0.7193 L 46.508,18.4445 c 0.3943,-0.0029 0.7164,0.3145 0.7192,0.7089 0.0029,0.3943 -0.3145,0.7164 -0.7088,0.7192 l -22.7548,0.1657 c -0.3943,0.0029 -0.7164,-0.3145 -0.7192,-0.7088 z"
       fill="url(#paint2_linear)"
       id="path6" />
    <path
       d="m 45.1129,17.4939 c -0.0026,-0.1578 0.1231,-0.2877 0.2809,-0.2903 0.1577,-0.0026 0.2877,0.1231 0.2902,0.2809 l 0.0611,3.7127 c 0.0026,0.1577 -0.1232,0.2877 -0.2809,0.2903 -0.1577,0.0026 -0.2877,-0.1232 -0.2903,-0.2809 z"
       fill="url(#paint3_linear)"
       id="path8" />
    <path
       d="M 19.6586,4.59048 C 19.8842,7.34189 17.8365,9.75518 15.0851,9.98072 12.3337,10.2063 9.9204,8.15863 9.69487,5.40721 9.46934,2.6558 11.517,0.242513 14.2684,0.0169792 17.0198,-0.208555 19.4331,1.83907 19.6586,4.59048 Z"
       fill="url(#paint4_linear)"
       id="path10" />
    <path
       d="M 4.58103,50.9681 C 4.14367,49.3484 5.54274,47.8253 7.19371,48.1239 L 9.10755,48.47 c 0.42297,0.0764 0.85895,0.0321 1.25785,-0.128 L 46.7006,33.7567 c 0.9531,-0.3826 2.0353,0.0845 2.4107,1.0404 0.3734,0.9508 -0.0947,2.0243 -1.0456,2.3977 L 7.7632,53.0212 C 6.49568,53.5189 5.07689,52.8046 4.72191,51.4899 Z"
       fill="url(#paint5_linear)"
       id="path12" />
    <path
       d="m 31.7079,20.7864 c 0.9419,-0.84 2.3863,-0.7574 3.2263,0.1845 l 0.1902,0.2131 c 0.8399,0.9419 1.2405,2.8045 0.2987,3.6445 l -8.1538,7.272 -3.0021,2.4909 -1.1704,-3.4794 -1.008,-0.0607 c -0.7323,0.172 -1.7493,-0.2768 -1.1844,-0.7733 z"
       fill="url(#paint6_linear)"
       id="path14" />
    <path
       d="m 20.202,32.8571 c -0.4455,-1.1808 0.4707,-2.7929 1.6515,-3.2383 1.1808,-0.4455 2.4462,0.3434 2.8917,1.5242 l 4.4894,9.7245 -4.4978,1.7636 z"
       fill="url(#paint7_linear)"
       id="path16" />
    <path
       d="m 17.9684,14.4253 c -0.3671,0.0301 0.4432,-0.5735 1.4769,-1.9479 l 2.3835,-3.83811 c 1.0064,-0.76143 2.4396,-0.56282 3.201,0.4436 l 9.9044,11.88801 c 0.7615,1.0064 -1.4141,1.0297 -2.4205,1.7911 l -3.4168,2.5851 c -1.0064,0.7614 -1.9419,1.228 -2.7033,0.2216 z"
       fill="url(#paint8_linear)"
       id="path18" />
    <path
       d="m 10.0463,16.6869 c -0.07733,-0.9433 0.6247,-1.7707 1.568,-1.848 l 9.3944,-0.7701 c 0.9434,-0.0773 1.7708,0.6247 1.8481,1.568 0.0773,0.9434 -0.6004,2.0672 -1.5437,2.1446 l -9.3944,0.77 c -0.9434,0.0773 -1.7951,-0.9211 -1.8724,-1.8645 z"
       fill="url(#paint9_linear)"
       id="path20" />
  </g>
  <defs
     id="defs89">
    <filter
       id="filter0_d"
       x="0.5"
       y="0"
       width="53"
       height="61.180199"
       filterUnits="userSpaceOnUse"
       color-interpolation-filters="sRGB">
      <feFlood
         flood-opacity="0"
         result="BackgroundImageFix"
         id="feFlood24" />
      <feColorMatrix
         in="SourceAlpha"
         type="matrix"
         values="0 0 0 0 0 0 0 0 0 0 0 0 0 0 0 0 0 0 127 0"
         result="hardAlpha"
         id="feColorMatrix26" />
      <feOffset
         dy="4"
         id="feOffset28" />
      <feGaussianBlur
         stdDeviation="2"
         id="feGaussianBlur30" />
      <feColorMatrix
         type="matrix"
         values="0 0 0 0 0 0 0 0 0 0 0 0 0 0 0 0 0 0 0.25 0"
         id="feColorMatrix32" />
      <feBlend
         mode="normal"
         in2="BackgroundImageFix"
         result="effect1_dropShadow"
         id="feBlend34" />
      <feBlend
         mode="normal"
         in="SourceGraphic"
         in2="effect1_dropShadow"
         result="shape"
         id="feBlend36" />
    </filter>
    <linearGradient
       id="paint0_linear"
       x1="21.942699"
       y1="8.2722397"
       x2="25.0769"
       y2="46.508499"
       gradientUnits="userSpaceOnUse">
      <stop
         stop-color="#BD93F9"
         id="stop39" />
      <stop
         offset="1"
         stop-color="#FFB86C"
         id="stop41" />
    </linearGradient>
    <linearGradient
       id="paint1_linear"
       x1="21.942699"
       y1="8.2722397"
       x2="25.0769"
       y2="46.508499"
       gradientUnits="userSpaceOnUse">
      <stop
         stop-color="#BD93F9"
         id="stop44" />
      <stop
         offset="1"
         stop-color="#FFB86C"
         id="stop46" />
    </linearGradient>
    <linearGradient
       id="paint2_linear"
       x1="21.942699"
       y1="8.2722397"
       x2="25.0769"
       y2="46.508499"
       gradientUnits="userSpaceOnUse">
      <stop
         stop-color="#BD93F9"
         id="stop49" />
      <stop
         offset="1"
         stop-color="#FFB86C"
         id="stop51" />
    </linearGradient>
    <linearGradient
       id="paint3_linear"
       x1="21.942699"
       y1="8.2722397"
       x2="25.0769"
       y2="46.508499"
       gradientUnits="userSpaceOnUse">
      <stop
         stop-color="#BD93F9"
         id="stop54" />
      <stop
         offset="1"
         stop-color="#FFB86C"
         id="stop56" />
    </linearGradient>
    <linearGradient
       id="paint4_linear"
       x1="21.942699"
       y1="8.2722397"
       x2="25.0769"
       y2="46.508499"
       gradientUnits="userSpaceOnUse">
      <stop
         stop-color="#BD93F9"
         id="stop59" />
      <stop
         offset="1"
         stop-color="#FFB86C"
         id="stop61" />
    </linearGradient>
    <linearGradient
       id="paint5_linear"
       x1="21.942699"
       y1="8.2722397"
       x2="25.0769"
       y2="46.508499"
       gradientUnits="userSpaceOnUse">
      <stop
         stop-color="#BD93F9"
         id="stop64" />
      <stop
         offset="1"
         stop-color="#FFB86C"
         id="stop66" />
    </linearGradient>
    <linearGradient
       id="paint6_linear"
       x1="21.942699"
       y1="8.2722397"
       x2="25.0769"
       y2="46.508499"
       gradientUnits="userSpaceOnUse">
      <stop
         stop-color="#BD93F9"
         id="stop69" />
      <stop
         offset="1"
         stop-color="#FFB86C"
         id="stop71" />
    </linearGradient>
    <linearGradient
       id="paint7_linear"
       x1="21.942699"
       y1="8.2722397"
       x2="25.0769"
       y2="46.508499"
       gradientUnits="userSpaceOnUse">
      <stop
         stop-color="#BD93F9"
         id="stop74" />
      <stop
         offset="1"
         stop-color="#FFB86C"
         id="stop76" />
    </linearGradient>
    <linearGradient
       id="paint8_linear"
       x1="21.942699"
       y1="8.2722397"
       x2="25.0769"
       y2="46.508499"
       gradientUnits="userSpaceOnUse">
      <stop
         stop-color="#BD93F9"
         id="stop79" />
      <stop
         offset="1"
         stop-color="#FFB86C"
         id="stop81" />
    </linearGradient>
    <linearGradient
       id="paint9_linear"
       x1="21.942699"
       y1="8.2722397"
       x2="25.0769"
       y2="46.508499"
       gradientUnits="userSpaceOnUse">
      <stop
         stop-color="#BD93F9"
         id="stop84" />
      <stop
         offset="1"
         stop-color="#FFB86C"
         id="stop86" />
    </linearGradient>
  </defs>
</svg>
