<?xml version="1.0" encoding="UTF-8"?>
<svg fill="none" version="1.1" viewBox="0 0 54 54" xmlns="http://www.w3.org/2000/svg" xmlns:xlink="http://www.w3.org/1999/xlink">
 <g fill="url(#a)" filter="url(#b)">
  <path d="m14.709 0c-1.1072-0.030251-2.2272 0.30533-3.1562 1.0957-2.9163 2.1292-2.2556 7.17 1.1094 8.4785 3.2656 1.6189 7.4592-1.3695 6.9961-4.9844-0.1405-2.6835-2.5135-4.5233-4.9492-4.5898zm8.4863 8.1562c-0.30361-0.00234-0.62544 0.070927-0.9707 0.24219-0.92902 0.65104-1.2854 1.8805-1.9707 2.7773-0.54828 1.1405-1.6842 2.2056-2.2168 3.1328-1.6319 0.13413-3.2641 0.28403-4.8965 0.4043-1.3029 0.01174-3.236 0.21165-3.0938 1.9746 0.08365 0.83005 0.6818 1.662 1.5234 1.8457 2.9952-0.13738 5.9883-0.47119 8.9824-0.6914l4.0762 5.3926c0.62682 0.67726 1.0747 1.6001 1.7246 2.2559l-5.0312 4.4199c-0.16525 0.12045-0.27562 0.22583-0.35547 0.32422-0.7136 0.57243-1.1309 1.4997-0.76562 2.623l4.5137 9.7246-13.186 5.2929c-1.1375 0.61672-2.4118 0.74947-3.6504 0.37304-1.7107-0.72842-3.879 0.828-3.2988 2.7207 0.19417 1.5169 1.6756 2.6675 3.1836 2.0527l39.912-15.674c2.6152-0.41192 1.4945-4.6401-0.97461-3.5898l-17.506 7.0254-3.4297-7.4297c3.2902-2.7592 6.4337-5.6898 9.6582-8.5254 1.0185-1.1353 0.53561-2.8337-0.49023-3.8281-1.12e-4 -0.0099 3.55e-4 -0.01927 0-0.02931l-0.83789-1.0059c3.6302-0.02643 7.2605-0.05364 10.891-0.08008 0.05276 0.01835 0.11012 0.03085 0.16797 0.04297 0.0047 0.28709 9e-3 0.57423 0.01367 0.86132 0.29973 1.3931 0.66974 0.03674 0.61523-0.83593 1.0617-0.10102 2.1669-0.83942 0.72461-1.5078l-0.79102 0.0058c0.01788-0.72723-0.02605-1.4047-0.60352-0.95703 0.0053 0.3203 0.01036 0.64064 0.01563 0.96093l-12.217 0.089869-1.2871-1.5449 15.633-0.11328c0.05232 0.0182 0.11064 0.03089 0.16797 0.04297 0.0047 0.28709 0.0089 0.57423 0.01367 0.86132 0.29962 1.3927 0.67139 0.03875 0.61719-0.83398 1.0617-0.101 2.167-0.84136 0.72461-1.5098-0.26432 0.0019-0.52865 0.0039-0.79297 0.0059 0.01776-0.72649-0.02452-1.4042-0.60156-0.95703 0.0053 0.3203 0.01035 0.64064 0.01563 0.96093-5.6529 0.04118-11.306 0.08382-16.959 0.125l-4.166-5c-0.81571-0.98876-1.7664-2.4157-3.082-2.4258z" fill="url(#c)"/>
 </g>
 <defs>
  <filter id="b" x=".5" y="0" width="53" height="61.18" color-interpolation-filters="sRGB" filterUnits="userSpaceOnUse">
   <feFlood flood-opacity="0" result="BackgroundImageFix"/>
   <feColorMatrix in="SourceAlpha" result="hardAlpha" values="0 0 0 0 0 0 0 0 0 0 0 0 0 0 0 0 0 0 127 0"/>
   <feOffset dy="4"/>
   <feGaussianBlur stdDeviation="2"/>
   <feColorMatrix values="0 0 0 0 0 0 0 0 0 0 0 0 0 0 0 0 0 0 0.25 0"/>
   <feBlend in2="BackgroundImageFix" result="effect1_dropShadow"/>
   <feBlend in="SourceGraphic" in2="effect1_dropShadow" result="shape"/>
  </filter>
  <linearGradient id="a" x1="21.943" x2="25.077" y1="8.2722" y2="46.508" gradientUnits="userSpaceOnUse">
   <stop stop-color="#BD93F9" offset="0"/>
   <stop stop-color="#FFB86C" offset="1"/>
  </linearGradient>
  <linearGradient id="c" x1="21.943" x2="25.077" y1="8.2722" y2="46.508" gradientTransform="scale(1)" gradientUnits="userSpaceOnUse" xlink:href="#a"/>
 </defs>
</svg>
